<?xml version="1.0" encoding="UTF-8" standalone="no"?>
<!-- Created with Inkscape (http://www.inkscape.org/) -->

<svg
   xmlns:dc="http://purl.org/dc/elements/1.1/"
   xmlns:cc="http://creativecommons.org/ns#"
   xmlns:rdf="http://www.w3.org/1999/02/22-rdf-syntax-ns#"
   xmlns:svg="http://www.w3.org/2000/svg"
   xmlns="http://www.w3.org/2000/svg"
   xmlns:sodipodi="http://sodipodi.sourceforge.net/DTD/sodipodi-0.dtd"
   xmlns:inkscape="http://www.inkscape.org/namespaces/inkscape"
   width="744.09003"
   height="750"
   id="svg2"
   version="1.1"
   inkscape:version="0.48.4 r9939"
   sodipodi:docname="cloud.svg">
  <defs
     id="defs4" />
  <sodipodi:namedview
     id="base"
     pagecolor="#ffffff"
     bordercolor="#666666"
     borderopacity="1.0"
     inkscape:pageopacity="0.0"
     inkscape:pageshadow="2"
     inkscape:zoom="0.32"
     inkscape:cx="-54.770251"
     inkscape:cy="893.73802"
     inkscape:document-units="px"
     inkscape:current-layer="layer1"
     showgrid="false"
     inkscape:window-width="984"
     inkscape:window-height="836"
     inkscape:window-x="2088"
     inkscape:window-y="80"
     inkscape:window-maximized="0" />
  <metadata
     id="metadata7">
    <rdf:RDF>
      <cc:Work
         rdf:about="">
        <dc:format>image/svg+xml</dc:format>
        <dc:type
           rdf:resource="http://purl.org/dc/dcmitype/StillImage" />
        <dc:title />
      </cc:Work>
    </rdf:RDF>
  </metadata>
  <g
     inkscape:label="Layer 1"
     inkscape:groupmode="layer"
     id="layer1"
     transform="translate(0,-302.36218)">
    <path
       sodipodi:type="arc"
       style="fill:#000000"
       id="path2991"
       sodipodi:cx="387.89859"
       sodipodi:cy="484.65646"
       sodipodi:rx="272.74118"
       sodipodi:ry="272.74118"
       d="m 660.63977,484.65646 a 272.74118,272.74118 0 1 1 -545.48236,0 272.74118,272.74118 0 1 1 545.48236,0 z"
       transform="matrix(1.3185186,0,0,1.3185186,-139.71533,38.43252)" />
    <path
       sodipodi:type="arc"
       style="fill:#ffffff"
       id="path3003"
       sodipodi:cx="381.83768"
       sodipodi:cy="406.87469"
       sodipodi:rx="202.0305"
       sodipodi:ry="156.57364"
       d="m 583.86818,406.87469 a 202.0305,156.57364 0 1 1 -404.06101,0 202.0305,156.57364 0 1 1 404.06101,0 z"
       transform="matrix(0.70499999,0,0,0.83870967,99.510136,219.03358)" />
    <path
       sodipodi:type="arc"
       style="fill:#ffffff"
       id="path3005"
       sodipodi:cx="250.51784"
       sodipodi:cy="538.19452"
       sodipodi:rx="200.01021"
       sodipodi:ry="140.41121"
       d="m 450.52805,538.19452 a 200.01021,140.41121 0 1 1 -400.020421,0 200.01021,140.41121 0 1 1 400.020421,0 z"
       transform="matrix(0.98484849,0,0,0.89208634,8.8464874,205.42626)" />
    <path
       sodipodi:type="arc"
       style="fill:#ffffff"
       id="path3007"
       sodipodi:cx="349.51279"
       sodipodi:cy="610.92554"
       sodipodi:rx="137.38075"
       sodipodi:ry="156.57364"
       d="m 486.89354,610.92554 a 137.38075,156.57364 0 1 1 -274.76151,0 137.38075,156.57364 0 1 1 274.76151,0 z"
       transform="matrix(1.2573529,0,0,0.98064516,-26.30853,145.02994)" />
    <path
       sodipodi:type="arc"
       style="fill:#ffffff"
       id="path3011"
       sodipodi:cx="476.79199"
       sodipodi:cy="542.23517"
       sodipodi:rx="139.40105"
       sodipodi:ry="128.28937"
       d="m 616.19304,542.23517 a 139.40105,128.28937 0 1 1 -278.80209,0 139.40105,128.28937 0 1 1 278.80209,0 z"
       transform="translate(58.588848,118.05329)" />
  </g>
</svg>
